:FULLY-SPECIFIED
:FORCE-ALL-JOINTS-BE-3DOF
:DEGREES
714
root -11.6205 13.9148 -38.3423 512.875 -61.6082 211.953
lfemur -65.7551 24.2763 -0.574574
ltibia 74.7643 0 0
lfoot -7.45151 -8.20152 0
ltoes -3.89549 0 0
rfemur 9.14539 -10.1317 12.2513
rtibia 41.132 0 0
rfoot -25.2559 -27.7682 0
rtoes -28.1276 0 0
lowerback 12.5007 1.32928 8.8846
upperback -1.49705 3.33634 5.81584
thorax -8.51488 1.21903 0.61428
lowerneck -4.11879 4.93874 0.795621
upperneck 3.51404 6.50582 0.922631
head 1.75443 3.27669 0.33579
lclavicle 5.30801e-15 -7.88177e-14 0
lhumerus 64.3809 14.5482 105.868
lradius 10.7808 0 0
lwrist -75.6704 0 0
lhand -34.3218 41.7606 0
lfingers 7.12502 0 0
lthumb -7.49008 71.6123 0
rclavicle 5.30801e-15 -7.88177e-14 0
rhumerus -77.0458 19.269 -96.6151
rradius 115.678 0 0
rwrist -66.1757 0 0
rhand -10.795 -42.0245 0
rfingers 7.12502 0 0
rthumb 15.2101 -44.4594 0
715
root -11.6388 13.9104 -38.3447 512.561 -61.7156 212.43
lfemur -65.8985 24.3864 -0.73681
ltibia 75.0592 0 0
lfoot -7.72302 -8.14241 0
ltoes -3.96639 0 0
rfemur 9.18521 -10.2447 12.2235
rtibia 40.9093 0 0
rfoot -25.1938 -27.7255 0
rtoes -28.4536 0 0
lowerback 12.4083 1.33179 8.89463
upperback -1.5362 3.33614 5.81591
thorax -8.5053 1.21861 0.612292
lowerneck -4.08215 4.89934 0.811413
upperneck 3.48792 6.45185 0.920262
head 1.74628 3.24946 0.329226
lclavicle 5.02123e-15 -8.12685e-14 0
lhumerus 64.082 14.4687 106.107
lradius 11.0247 0 0
lwrist -75.8624 0 0
lhand -34.1833 41.7692 0
lfingers 7.12502 0 0
lthumb -7.35636 71.6242 0
rclavicle 5.02123e-15 -8.12685e-14 0
rhumerus -76.6723 19.2402 -96.3991
rradius 115.422 0 0
rwrist -65.9292 0 0
rhand -10.0512 -41.408 0
rfingers 7.12502 0 0
rthumb 15.9274 -48.1351 0
716
root -11.6569 13.9059 -38.3468 512.278 -61.8136 212.866
lfemur -66.0394 24.4908 -0.888479
ltibia 75.3414 0 0
lfoot -7.97882 -8.08808 0
ltoes -4.03642 0 0
rfemur 9.22558 -10.3497 12.1938
rtibia 40.6994 0 0
rfoot -25.136 -27.6838 0
rtoes -28.7623 0 0
lowerback 12.3218 1.33387 8.90456
upperback -1.57273 3.33562 5.81647
thorax -8.49611 1.21803 0.6107
lowerneck -4.04734 4.86418 0.828052
upperneck 3.46346 6.40363 0.916657
head 1.73848 3.22512 0.322392
lclavicle 4.77307e-15 -8.34145e-14 0
lhumerus 63.8197 14.4039 106.343
lradius 11.2438 0 0
lwrist -76.0717 0 0
lhand -34.0537 41.77 0
lfingers 7.12502 0 0
lthumb -7.23133 71.6282 0
rclavicle 4.77307e-15 -8.34145e-14 0
rhumerus -76.3312 19.2131 -96.2013
rradius 115.182 0 0
rwrist -65.6925 0 0
rhand -9.33469 -40.8143 0
rfingers 7.12502 0 0
rthumb 16.6182 -51.5935 0
717
root -11.675 13.9013 -38.3484 512.032 -61.9012 213.254
lfemur -66.1783 24.5895 -1.02858
ltibia 75.6102 0 0
lfoot -8.21761 -8.0395 0
ltoes -4.10507 0 0
rfemur 9.2671 -10.4455 12.1619
rtibia 40.5028 0 0
rfoot -25.0827 -27.6433 0
rtoes -29.0526 0 0
lowerback 12.2415 1.33541 8.9146
upperback -1.60637 3.33471 5.81763
thorax -8.48734 1.21726 0.609517
lowerneck -4.01458 4.8338 0.845748
upperneck 3.44085 6.36185 0.91157
head 1.73107 3.20401 0.315207
lclavicle 4.56494e-15 -8.52371e-14 0
lhumerus 63.5986 14.3553 106.578
lradius 11.4348 0 0
lwrist -76.3009 0 0
lhand -33.9341 41.7625 0
lfingers 7.12502 0 0
lthumb -7.11591 71.6239 0
rclavicle 4.56494e-15 -8.52371e-14 0
rhumerus -76.0264 19.188 -96.0239
rradius 114.958 0 0
rwrist -65.467 0 0
rhand -8.64781 -40.2457 0
rfingers 7.12502 0 0
rthumb 17.2803 -54.8179 0
718
root -11.693 13.8966 -38.3496 511.827 -61.9772 213.59
lfemur -66.3156 24.6821 -1.15613
ltibia 75.8646 0 0
lfoot -8.43809 -7.99767 0
ltoes -4.17181 0 0
rfemur 9.31038 -10.5315 12.1276
rtibia 40.3203 0 0
rfoot -25.0342 -27.6039 0
rtoes -29.3233 0 0
lowerback 12.1681 1.33632 8.92494
upperback -1.6369 3.33333 5.81953
thorax -8.47901 1.21625 0.608753
lowerneck -3.98406 4.80869 0.864715
upperneck 3.42026 6.32719 0.904758
head 1.72408 3.18649 0.30759
lclavicle 4.39827e-15 -8.67181e-14 0
lhumerus 63.4234 14.3245 106.81
lradius 11.5944 0 0
lwrist -76.5524 0 0
lhand -33.8255 41.7466 0
lfingers 7.12502 0 0
lthumb -7.01101 71.6108 0
rclavicle 4.39827e-15 -8.67181e-14 0
rhumerus -75.762 19.1651 -95.8689
rradius 114.753 0 0
rwrist -65.2542 0 0
rhand -7.99269 -39.7044 0
rfingers 7.12502 0 0
rthumb 17.9118 -57.7913 0
719
root -11.711 13.8919 -38.3503 511.666 -62.0407 213.87
lfemur -66.452 24.7682 -1.27011
ltibia 76.1038 0 0
lfoot -8.63893 -7.96356 0
ltoes -4.23613 0 0
rfemur 9.35599 -10.6066 12.0904
rtibia 40.1526 0 0
rfoot -24.9909 -27.5657 0
rtoes -29.5732 0 0
lowerback 12.1021 1.33652 8.93577
upperback -1.66407 3.33142 5.82229
thorax -8.47116 1.21495 0.608422
lowerneck -3.956 4.78937 0.885164
upperneck 3.40187 6.30036 0.895975
head 1.71754 3.17289 0.299459
lclavicle 4.27447e-15 -8.7839e-14 0
lhumerus 63.2985 14.313 107.038
lradius 11.7196 0 0
lwrist -76.8288 0 0
lhand -33.7286 41.7217 0
lfingers 7.12502 0 0
lthumb -6.91755 71.5886 0
rclavicle 4.27447e-15 -8.7839e-14 0
rhumerus -75.5419 19.1445 -95.7385
rradius 114.568 0 0
rwrist -65.0554 0 0
rhand -7.3715 -39.1926 0
rfingers 7.12502 0 0
rthumb 18.5105 -60.4969 0
